<?xml version="1.0" encoding="UTF-8" standalone="no"?>
<!-- Created with Inkscape (http://www.inkscape.org/) -->

<svg
   width="40.000004mm"
   height="39.017361mm"
   viewBox="0 0 40.000004 39.017361"
   version="1.1"
   id="svg8"
   inkscape:version="1.3.2 (091e20ef0f, 2023-11-25)"
   sodipodi:docname="rockchisel-polish.svg"
   xmlns:inkscape="http://www.inkscape.org/namespaces/inkscape"
   xmlns:sodipodi="http://sodipodi.sourceforge.net/DTD/sodipodi-0.dtd"
   xmlns="http://www.w3.org/2000/svg"
   xmlns:svg="http://www.w3.org/2000/svg"
   xmlns:rdf="http://www.w3.org/1999/02/22-rdf-syntax-ns#"
   xmlns:cc="http://creativecommons.org/ns#"
   xmlns:dc="http://purl.org/dc/elements/1.1/">
  <defs
     id="defs2" />
  <sodipodi:namedview
     id="base"
     pagecolor="#ffffff"
     bordercolor="#666666"
     borderopacity="1.0"
     inkscape:pageopacity="0.0"
     inkscape:pageshadow="2"
     inkscape:zoom="7.9195959"
     inkscape:cx="75.508903"
     inkscape:cy="100.0051"
     inkscape:document-units="mm"
     inkscape:current-layer="layer1-9"
     showgrid="false"
     inkscape:window-width="1896"
     inkscape:window-height="1009"
     inkscape:window-x="0"
     inkscape:window-y="0"
     inkscape:window-maximized="1"
     inkscape:pagecheckerboard="0"
     inkscape:showpageshadow="2"
     inkscape:deskcolor="#d1d1d1"
     showguides="false" />
  <metadata
     id="metadata5">
    <rdf:RDF>
      <cc:Work
         rdf:about="">
        <dc:format>image/svg+xml</dc:format>
        <dc:type
           rdf:resource="http://purl.org/dc/dcmitype/StillImage" />
      </cc:Work>
    </rdf:RDF>
  </metadata>
  <g
     inkscape:label="Layer 1"
     inkscape:groupmode="layer"
     id="layer1"
     transform="translate(-62.30711,-101.77809)">
    <g
       id="layer1-9"
       inkscape:label="Layer 1"
       transform="translate(33.015528,47.67598)">
      <rect
         style="fill:#000000;stroke-width:0.242304"
         id="rect1"
         width="20"
         height="20"
         x="39.29158"
         y="70.102112" />
      <path
         style="fill:#ffffff;stroke-width:0.264583"
         id="path11"
         d="m 51.257271,70.965793 c -0.05223,10e-6 -1.683448,-0.0085 -1.735596,-0.0097 -0.127637,-0.0028 -0.255321,0.0027 -0.382985,0.0036 -0.458768,0.0031 -0.119291,-0.003 -0.642096,0.01024 -0.853353,0.0094 -1.706643,-0.0058 -2.559986,-0.0066 -0.118966,-8.73e-4 -0.237939,-0.0042 -0.356898,-0.0026 -0.07709,9.79e-4 -0.608476,0.02164 -0.686251,0.02446 -0.350306,0.01271 -0.70012,0.0302 -1.050213,0.04783 -0.496388,0.01542 -0.99255,0.03803 -1.48908,0.04854 -0.201335,-0.006 -0.401593,0.01203 -0.602388,0.02235 -0.213777,0.01418 -0.427495,0.02092 -0.641716,0.02087 -0.165657,0.02023 -0.386637,-0.02558 -0.531338,0.07793 -0.02248,0.01608 -0.03987,0.03828 -0.05981,0.05742 -0.108332,0.144636 -0.09705,0.315787 -0.08766,0.486457 0.02729,0.290017 0.04632,0.581002 0.05899,0.872005 0.01231,0.412274 0.0038,0.82488 0.01585,1.23708 0.02983,0.499169 0.03498,0.999091 0.04885,1.498799 0.0145,0.497709 0.02132,0.995582 0.03117,1.493426 -6.61e-4,0.08351 -0.0026,0.167029 -0.002,0.250544 0.0037,0.498631 0.0093,0.04207 0.0079,0.54473 -7.68e-4,0.259385 -0.01133,0.518231 -0.02296,0.777295 -0.01395,0.436304 -0.02232,0.872736 -0.03831,1.309049 -0.008,0.181337 -0.01537,1.238001 -0.02649,1.419175 l 1.71103,-0.0033 v 0 c -0.01065,-0.189309 -0.01761,-0.378833 -0.02361,-0.568346 -0.01045,-0.441991 -0.01021,-0.883795 -0.0017,-1.3258 0.0018,-0.527443 0.01724,-1.054883 0.01023,-1.582268 0.0035,-0.497856 -2.29e-4,-0.996116 -0.02105,-1.493549 -0.0062,-0.167595 -0.01462,-0.335111 -0.01927,-0.502754 -0.0091,-0.327502 -0.0017,-0.655228 -0.0079,-0.982775 -0.0052,-0.409107 -0.0024,-0.818161 -4.49e-4,-1.227285 0.006,-0.282406 0.01658,-0.564569 0.0072,-0.847109 -0.0047,-0.09729 -0.02116,-0.22736 0.0237,-0.317267 0.11896,-0.06652 0.336076,-0.04361 0.467199,-0.05585 0.230201,-0.0019 0.460705,0.0089 0.690531,-0.0048 0.181608,-0.02172 0.363353,-0.04098 0.545524,-0.05762 0.458021,-0.0486 0.915874,-0.09926 1.375748,-0.127836 0.689615,-0.03739 1.38037,-0.04794 2.070343,-0.0778 0.09918,-0.0027 0.68648,-0.01878 0.775646,-0.01969 0.594208,-0.0061 1.188395,0.01028 1.782103,0.03268 0.459686,0.03195 0.922172,0.05452 1.372739,0.158591 z"
         sodipodi:nodetypes="cccccccccccsccccccccccccscccccccccccccccccc" />
      <path
         style="fill:#ffffff;stroke-width:0.264583"
         id="path12"
         d="m 53.153305,88.72191 c 0.369722,0.03073 1.507325,0.06952 1.877381,0.09632 0.468253,0.03787 0.937812,0.05106 1.407363,0.05779 0.347376,0.0038 0.694753,0.0079 1.042154,0.0085 0.205039,0.0056 0.409262,0.0046 0.613777,-0.0105 0.186608,-0.008 0.199425,-0.105195 0.240536,-0.268785 0.06828,-0.402598 0.06936,-0.813564 0.07699,-1.220861 0.0021,-0.476703 0.01371,-0.953371 0.0086,-1.430076 -0.0099,-0.376748 -0.01955,-0.753552 -0.01548,-1.130448 0.0011,-0.12859 0.0052,-0.690949 0.0063,-0.819533 l -0.870847,-0.0045 v 0 c 0.01423,0.131378 0.01297,0.263623 0.02016,0.395517 0.01619,0.380545 0.02609,0.761344 0.03779,1.142043 0.01288,0.476744 0.0113,0.953994 0.0013,1.430782 -0.01172,0.392834 -0.01595,0.791688 -0.109693,1.175422 -0.05321,0.150553 -0.03959,0.147978 -0.191008,0.163303 -0.194369,0.01995 -0.389433,0.02016 -0.584693,0.02119 -0.340828,0.0016 -0.681648,0.0067 -1.022485,0.0042 -0.462713,-0.0048 -0.925684,-0.01479 -1.387181,-0.05091 -0.392869,-0.03638 -0.785037,-0.07962 -1.174027,-0.146714 z"
         sodipodi:nodetypes="cccccccccccscccccccccc" />
    </g>
  </g>
</svg>
